<svg xmlns="http://www.w3.org/2000/svg" xmlns:xlink="http://www.w3.org/1999/xlink" width="51" height="51" viewBox="0 0 51 51"><defs><style>.a,.b{fill:#282e36;}.b{stroke:#0084ff;}.c{fill:#0084ff;}.d{stroke:none;}.e{fill:none;}.f{filter:url(#c);}.g{filter:url(#a);}</style><filter id="a" x="0" y="0" width="51" height="51" filterUnits="userSpaceOnUse"><feOffset dy="3" input="SourceAlpha"/><feGaussianBlur stdDeviation="6" result="b"/><feFlood flood-opacity="0.251"/><feComposite operator="in" in2="b"/><feComposite in="SourceGraphic"/></filter><filter id="c" x="13.5" y="10.5" width="24" height="24" filterUnits="userSpaceOnUse"><feOffset input="SourceAlpha"/><feGaussianBlur stdDeviation="1.5" result="d"/><feFlood flood-opacity="0.161"/><feComposite operator="in" in2="d"/><feComposite in="SourceGraphic"/></filter></defs><g transform="translate(18 15)"><g class="g" transform="matrix(1, 0, 0, 1, -18, -15)"><circle class="a" cx="7.5" cy="7.5" r="7.5" transform="translate(18 15)"/></g><g class="f" transform="matrix(1, 0, 0, 1, -18, -15)"><g class="b" transform="translate(18 15)"><circle class="d" cx="7.5" cy="7.5" r="7.5"/><circle class="e" cx="7.5" cy="7.5" r="7"/></g></g><path class="c" d="M-1.11-11.5H.8L.478-5.46H-.8Zm.955,9.985A1.027,1.027,0,0,1-.9-1.805a.962.962,0,0,1-.3-.716.942.942,0,0,1,.3-.71,1.04,1.04,0,0,1,.749-.284,1,1,0,0,1,.729.284.952.952,0,0,1,.29.71.973.973,0,0,1-.29.716A.989.989,0,0,1-.155-1.515Z" transform="translate(7.645 14.002)"/></g></svg>